<svg version="1.2" xmlns="http://www.w3.org/2000/svg" viewBox="0 0 1005 485" width="1005" height="485">
	<title>blog-logo-green-svg</title>
	<style>
		.s0 { fill: none } 
		.s1 { fill: #7c9e83 } 
	</style>
	<path id="backgroundrect" class="s0" d="m-96-358h1200v1200h-1200z"/>
	<g id="Layer">
		<g id="svg_1">
			<path id="svg_2" fill-rule="evenodd" class="s1" d="m378 16.2c1.8 1.3 4.2 3.5 5.3 4.9 1.8 2.6 1.9 3 0.3 16.5-3 26.3-10.6 122.3-10.6 134v4.6l20.3-0.6c33-1.1 64.6-2.6 73.2-3.6 4.4-0.5 10.6-1.2 13.7-1.6 4.8-0.6 5.9-0.4 6.4 1 1.3 3.3-0.6 6.7-5.4 9.7-6 3.8-12.1 5.6-24.9 7.4-13.5 1.9-55.6 3.8-66.5 3l-8.7-0.6 8.3 8.3c23.5 23.6 40.1 61.1 46.7 105 2.5 16.8 2.9 48.1 0.9 64.2-2.9 23.6-9.6 40.2-19.3 48-5.1 4.1-13.6 4.7-21.9 1.6-12.9-4.8-25.5-24.3-33.2-51.7-6.8-24-9.6-48.6-10.3-90.6-0.5-29 0.8-76.1 2.3-83.7 0.4-2.4-0.2-2.9-7.4-6.3-6-2.8-8.3-4.4-9.6-7-2.9-5.2-1.9-7.2 3.4-7.2 2.5 0.1 6.5 0.4 9 0.9l4.5 0.7 0.2-14.3c0.5-32.8 10-139.3 12.8-143.9 1.1-1.7 7.2-0.9 10.5 1.3zm-3.9 186.1c-1.8-1.2-2.1-1-2.6 2-2.6 16.1-3.6 84.4-1.6 109.2 3.3 39.4 10.5 66.9 21.7 83.9 4.3 6.5 4.7 6.8 7.7 6.2 5.9-1.2 9.9-6.7 14.6-20.1 10.9-30.9 8.1-85.7-6.6-127.8-6-17.5-13.5-30.8-25.4-45.2-3.2-3.9-6.7-7.6-7.8-8.2z"/>
			<path id="svg_3" class="s1" d="m158.3 81.2c-0.7 1.1-2 7.7-4.9 23.8-0.5 3-0.1 4.2 2.2 6.9 1.5 1.9 4.3 4 6.1 4.7 9.1 3.9 12.3 0.1 14.3-17 0.8-6.6 0.7-8.5-0.7-11.3-2.8-5.9-14.6-10.8-17-7.1z"/>
			<path id="svg_4" fill-rule="evenodd" class="s1" d="m159.3 136c6.5 0 12.7 4.6 14.1 10.3 1.4 5.9 3.6 30.9 4.3 47.9 0.3 9.8 0.7 17.8 0.8 17.8 0.1 0 3.5-1.4 7.5-3 4.1-1.7 14.1-5.2 22.4-7.9 28.2-9.1 48.2-11.9 52.7-7.5 2.5 2.6 1.9 5.6-1.4 7.2-1.2 0.6-7.4 2.7-13.7 4.7-17.1 5.5-32.6 11.8-50.7 20.5l-16.3 7.9v37.3c0 39.1-0.9 59-3.6 79.8-3.8 29.9-11.6 59.5-20.4 77-13.9 27.7-31.1 40.2-55.5 40.2-29 0.1-57.8-15.4-73.8-39.5-13.9-21-17.4-45.6-9.6-68.3 11.3-32.6 42-68.6 88.4-103.4 15.5-11.7 33-23.2 45.7-30.1 5.1-2.7 9.6-5.3 10.1-5.8 0.7-0.7-0.6-32.5-1.9-46.3l-0.6-6.7-7.5 7.9c-10.9 11.6-18.4 17-23.7 17-4.8 0-6.6-1.3-6.6-4.8 0-1.4 6.3-11 16.4-25 9-12.5 17-23.7 17.7-25 1-1.6 2.3-2.2 5.2-2.2zm0.8 111.2c-0.6-2.3-1-2.1-12.4 5.2-23.8 15.2-49.5 35.6-67.7 53.6-38.3 37.9-55.4 73.3-48.5 100 4.9 19.1 18.5 35.3 35.3 41.9 9.5 3.7 20.7 5.5 27.9 4.3 31.8-5.3 51.9-40.4 61.9-108.2 2.7-17.8 4.4-49 4.3-77.5-0.1-9.4-0.4-18-0.8-19.3z"/>
			<path id="svg_5" class="s1" d="m571.1 148.3c-3.1 3.8-5.7 58.7-3.1 67.6 1.9 6.6 12.5 14.9 17.5 13.7 2.6-0.7 9.2-7.5 23.7-24.9 5.6-6.7 12.9-15.1 16.3-18.6 7.7-8.1 18.4-16.6 19.4-15.5 0.4 0.5 2.3 6.7 4.1 13.9 4 15.9 7.5 25.1 10.9 28.8 3.1 3.5 9.1 6.7 12.3 6.7 2.6 0 17.9-11.1 36-26.3 6.5-5.3 12-9.7 12.2-9.7 0.3 0 2.5 3 4.9 6.7 8.9 13.8 21.5 25.1 34.8 31.2 25.8 11.9 125.2 6.1 196.4-11.5 21.1-5.2 38.3-12.2 40.6-16.6 3-5.5-6.7-6-26.3-1.3-37.1 9-134.1 17.8-178.1 16.1-27.8-1-37.4-3-43.5-8.9-4.5-4.2-6.3-8-10.6-21.8-3.1-10-4.1-12.2-7.2-14.9-2-1.7-4.7-3.6-6.1-4.1-5.9-2.2-7-1.6-31.8 18.6-13.2 10.7-24 19.3-24.2 19.2-0.1-0.1-1.8-7.7-3.8-16.7-4-18-5.5-22.3-8.8-25.8-3-3.2-9-6.2-12.4-6.2-7.8 0-29.1 17.2-51.3 41.5l-7.2 8 0.6-8c2-26.3 1.9-31.2-0.2-34.7-2.2-3.6-8.7-7.8-12-7.8-1.1 0-2.5 0.6-3.1 1.3z"/>
			<path id="svg_6" class="s1" d="m308.2 212c-7.1 4.4-9.6 14.6-4.7 19.5 1.9 2 3.4 2.5 7.6 2.5 4.8 0 5.5-0.3 9.5-4.4 4.1-4 4.4-4.7 4.4-9.5 0-4.3-0.4-5.6-2.6-7.6-3.4-3.1-9.5-3.3-14.2-0.5z"/>
			<path id="svg_7" class="s1" d="m514.2 212c-7.1 4.4-9.6 14.6-4.7 19.5 1.9 2 3.4 2.5 7.6 2.5 4.8 0 5.5-0.3 9.5-4.4 4.1-4 4.4-4.7 4.4-9.5 0-4.3-0.4-5.6-2.6-7.6-3.4-3.1-9.5-3.3-14.2-0.5z"/>
		</g>
	</g>
</svg>