<?xml version="1.0" standalone="no"?>
<!DOCTYPE svg PUBLIC "-//W3C//DTD SVG 20010904//EN"
 "http://www.w3.org/TR/2001/REC-SVG-20010904/DTD/svg10.dtd">
<svg version="1.0" xmlns="http://www.w3.org/2000/svg"
 width="1200.000000pt" height="1200.000000pt" viewBox="0 0 1200.000000 1200.000000"
 preserveAspectRatio="xMidYMid meet">

<g transform="translate(0.000000,1200.000000) scale(0.100000,-0.100000)"
fill="#000000" stroke="none">
<path d="M4635 8271 c-28 -46 -123 -1111 -128 -1439 l-2 -143 -45 7 c-25 5
-65 8 -90 9 -53 0 -63 -20 -34 -72 13 -26 36 -42 96 -70 72 -34 78 -39 74 -63
-15 -76 -28 -547 -23 -837 7 -420 35 -666 103 -906 77 -274 203 -469 332 -517
83 -31 168 -25 219 16 97 78 164 244 193 480 20 161 16 474 -9 642 -66 439
-232 814 -467 1050 l-83 83 87 -6 c109 -8 530 11 665 30 128 18 189 36 249 74
48 30 67 64 54 97 -5 14 -16 16 -64 10 -31 -4 -93 -11 -137 -16 -86 -10 -402
-25 -732 -36 l-203 -6 0 46 c0 117 76 1077 106 1340 16 135 15 139 -3 165 -11
14 -35 36 -53 49 -33 22 -94 30 -105 13z m144 -1956 c119 -144 194 -277 254
-452 147 -421 175 -969 66 -1278 -47 -134 -87 -189 -146 -201 -30 -6 -34 -3
-77 62 -112 170 -184 445 -217 839 -20 248 -10 931 16 1092 5 30 8 32 26 20
11 -6 46 -43 78 -82z"/>
<path d="M2543 7608 c-7 -11 -20 -77 -49 -238 -5 -30 -1 -42 22 -69 15 -19 43
-40 61 -47 91 -39 123 -1 143 170 8 66 7 85 -7 113 -28 59 -146 108 -170 71z"/>
<path d="M2501 7038 c-7 -13 -87 -125 -177 -250 -101 -140 -164 -236 -164
-250 0 -35 18 -48 66 -48 53 0 128 54 237 170 l75 79 6 -67 c13 -138 26 -456
19 -463 -5 -5 -50 -31 -101 -58 -127 -69 -302 -184 -457 -301 -464 -348 -771
-708 -884 -1034 -78 -227 -43 -473 96 -683 160 -241 448 -396 738 -395 244 0
416 125 555 402 88 175 166 471 204 770 27 208 36 407 36 798 l0 373 163 79
c181 87 336 150 507 205 63 20 125 41 137 47 33 16 39 46 14 72 -45 44 -245
16 -527 -75 -83 -27 -183 -62 -224 -79 -40 -16 -74 -30 -75 -30 -1 0 -5 80 -8
178 -7 170 -29 420 -43 479 -14 57 -76 103 -141 103 -29 0 -42 -6 -52 -22z
m68 -1283 c1 -285 -16 -597 -43 -775 -100 -678 -301 -1029 -619 -1082 -72 -12
-184 6 -279 43 -168 66 -304 228 -353 419 -69 267 102 621 485 1000 182 180
439 384 677 536 114 73 118 75 124 52 4 -13 7 -99 8 -193z"/>
<path d="M6671 6937 c-31 -38 -57 -587 -31 -676 19 -66 125 -149 175 -137 26
7 92 75 237 249 56 67 129 151 163 186 77 81 184 166 194 155 4 -5 23 -67 41
-139 40 -159 75 -251 109 -288 31 -35 91 -67 123 -67 26 0 179 111 360 263 65
53 120 97 122 97 3 0 25 -30 49 -67 89 -138 215 -251 348 -312 258 -119 1252
-61 1964 115 211 52 383 122 406 166 30 55 -67 60 -263 13 -371 -90 -1341
-178 -1781 -161 -278 10 -374 30 -435 89 -45 42 -63 80 -106 218 -31 100 -41
122 -72 149 -20 17 -47 36 -61 41 -59 22 -70 16 -318 -186 -132 -107 -240
-193 -242 -192 -1 1 -18 77 -38 167 -40 180 -55 223 -88 258 -30 32 -90 62
-124 62 -78 0 -291 -172 -513 -415 l-72 -80 6 80 c20 263 19 312 -2 347 -22
36 -87 78 -120 78 -11 0 -25 -6 -31 -13z"/>
<path d="M4042 6300 c-71 -44 -96 -146 -47 -195 19 -20 34 -25 76 -25 48 0 55
3 95 44 41 40 44 47 44 95 0 43 -4 56 -26 76 -34 31 -95 33 -142 5z"/>
<path d="M6102 6300 c-71 -44 -96 -146 -47 -195 19 -20 34 -25 76 -25 48 0 55
3 95 44 41 40 44 47 44 95 0 43 -4 56 -26 76 -34 31 -95 33 -142 5z"/>
</g>
</svg>
